<svg width="102" height="25" viewBox="0 0 102 25" fill="none" xmlns="http://www.w3.org/2000/svg">
<path fill-rule="evenodd" clip-rule="evenodd" d="M4.01044 10.5261C4.01044 12.9817 5.48176 15.0937 7.59091 16.0285C8.85649 16.5894 10.0261 17.664 10.0261 19.0483V20.5522C4.48884 20.5522 2.42042e-07 16.0634 0 10.5261C-2.42042e-07 4.98884 4.48884 0.5 10.0261 0.5L10.0261 4.51044C6.70375 4.51044 4.01044 7.20375 4.01044 10.5261Z" fill="white"/>
<path fill-rule="evenodd" clip-rule="evenodd" d="M16.0418 14.4739C16.0418 12.0183 14.5705 9.90635 12.4613 8.97151C11.1957 8.41058 10.0261 7.33601 10.0261 5.9517L10.0261 4.44778C15.5634 4.44778 20.0522 8.93662 20.0522 14.4739C20.0522 20.0112 15.5634 24.5 10.0261 24.5V20.4896C13.3485 20.4896 16.0418 17.7963 16.0418 14.4739Z" fill="white"/>
<path d="M27.7473 7.77144C27.7473 9.73655 28.8877 10.9823 31.0634 11.456L33.0987 11.9122C34.1514 12.1403 34.5901 12.6491 34.5901 13.5089C34.5901 14.5792 33.6426 15.2284 32.1512 15.2284C30.7125 15.2284 29.8352 14.5792 29.8176 13.4913H27.5718C27.6244 15.7898 29.4141 17.2461 32.1512 17.2461C34.9761 17.2461 36.8359 15.7021 36.8359 13.3159C36.8359 11.4034 35.7656 10.2805 33.5724 9.80674L31.5547 9.36809C30.4844 9.12245 29.9931 8.61363 29.9931 7.70125C29.9931 6.63097 30.8879 5.96423 32.274 5.96423C33.5373 5.96423 34.3269 6.61342 34.3795 7.7188H36.6254C36.5552 5.40277 34.9059 3.96402 32.3091 3.96402C29.6071 3.96402 27.7473 5.52559 27.7473 7.77144Z" fill="white"/>
<path d="M39.4567 17.018V3.96402H37.3337V17.018H39.4567Z" fill="white"/>
<path d="M43.0281 17.2461C44.3791 17.2461 45.5547 16.632 45.9231 15.7372L46.081 17.018H47.9584V11.7543C47.9584 9.35055 46.5197 8.08726 44.1861 8.08726C41.835 8.08726 40.291 9.31546 40.291 11.1928H42.1157C42.1157 10.2805 42.8175 9.7541 44.0808 9.7541C45.1687 9.7541 45.8705 10.2278 45.8705 11.4034V11.5964L43.2737 11.7894C41.2209 11.9473 40.0629 12.9474 40.0629 14.5441C40.0629 16.1758 41.1858 17.2461 43.0281 17.2461ZM43.7299 15.6319C42.7649 15.6319 42.2385 15.2459 42.2385 14.4563C42.2385 13.7545 42.7474 13.3159 44.0808 13.1931L45.888 13.0527V13.5089C45.888 14.8423 45.0458 15.6319 43.7299 15.6319Z" fill="white"/>
<path d="M50.7907 17.018L50.9311 15.667C51.4399 16.6671 52.5453 17.2461 53.8437 17.2461C56.3351 17.2461 57.9669 15.4038 57.9669 12.7369C57.9669 9.99974 56.458 8.06971 53.984 8.06971C52.6681 8.06971 51.5101 8.64872 50.9486 9.61373V3.96402H48.808V17.018H50.7907ZM50.9662 12.6491C50.9662 11.0876 51.9312 9.99974 53.405 9.99974C54.9139 9.99974 55.8088 11.1051 55.8088 12.6491C55.8088 14.1932 54.9139 15.281 53.405 15.281C51.9312 15.281 50.9662 14.2107 50.9662 12.6491Z" fill="white"/>
<path d="M57.9969 7.77144C57.9969 9.73655 59.1374 10.9823 61.3131 11.456L63.3484 11.9122C64.4011 12.1403 64.8398 12.6491 64.8398 13.5089C64.8398 14.5792 63.8923 15.2284 62.4009 15.2284C60.9621 15.2284 60.0849 14.5792 60.0673 13.4913H57.8215C57.8741 15.7898 59.6638 17.2461 62.4009 17.2461C65.2258 17.2461 67.0856 15.7021 67.0856 13.3159C67.0856 11.4034 66.0153 10.2805 63.8221 9.80674L61.8043 9.36809C60.7341 9.12245 60.2428 8.61363 60.2428 7.70125C60.2428 6.63097 61.1376 5.96423 62.5237 5.96423C63.787 5.96423 64.5766 6.61342 64.6292 7.7188H66.8751C66.8049 5.40277 65.1556 3.96402 62.5588 3.96402C59.8568 3.96402 57.9969 5.52559 57.9969 7.77144Z" fill="white"/>
<path d="M67.5482 21.036H69.6888V15.86C70.2327 16.7373 71.3557 17.2461 72.654 17.2461C75.2333 17.2461 76.7071 15.281 76.7071 12.579C76.7071 9.85937 75.0929 8.08726 72.654 8.08726C71.3381 8.08726 70.1976 8.66627 69.6713 9.66637L69.5309 8.35044H67.5482V21.036ZM69.7064 12.6842C69.7064 11.1227 70.6714 10.0348 72.1452 10.0348C73.6541 10.0348 74.549 11.1402 74.549 12.6842C74.549 14.2282 73.6541 15.3161 72.1452 15.3161C70.6714 15.3161 69.7064 14.2458 69.7064 12.6842Z" fill="white"/>
<path d="M79.7374 17.2461C81.0885 17.2461 82.264 16.632 82.6325 15.7372L82.7904 17.018H84.6678V11.7543C84.6678 9.35055 83.229 8.08726 80.8955 8.08726C78.5443 8.08726 77.0003 9.31546 77.0003 11.1928H78.8251C78.8251 10.2805 79.5269 9.7541 80.7902 9.7541C81.878 9.7541 82.5799 10.2278 82.5799 11.4034V11.5964L79.9831 11.7894C77.9302 11.9473 76.7722 12.9474 76.7722 14.5441C76.7722 16.1758 77.8951 17.2461 79.7374 17.2461ZM80.4393 15.6319C79.4743 15.6319 78.9479 15.2459 78.9479 14.4563C78.9479 13.7545 79.4567 13.3159 80.7902 13.1931L82.5974 13.0527V13.5089C82.5974 14.8423 81.7552 15.6319 80.4393 15.6319Z" fill="white"/>
<path d="M85.0086 12.6667C85.0086 15.4214 86.7281 17.2461 89.3599 17.2461C91.6233 17.2461 93.3077 15.86 93.5709 13.8422H91.4128C91.1847 14.7897 90.4302 15.3161 89.3599 15.3161C87.9914 15.3161 87.1492 14.2984 87.1492 12.6667C87.1492 11.0349 88.0615 9.99974 89.4301 9.99974C90.4477 9.99974 91.1671 10.5086 91.4128 11.4911H93.5533C93.3252 9.40318 91.711 8.08726 89.3424 8.08726C86.7807 8.08726 85.0086 9.98219 85.0086 12.6667Z" fill="white"/>
<path d="M97.7884 17.2461C100.052 17.2461 101.631 16.1056 101.999 14.2107H100.017C99.7711 15.0354 98.9991 15.4915 97.8235 15.4915C96.4023 15.4915 95.5952 14.7195 95.4373 13.1931L101.964 13.1755V12.5263C101.964 9.82428 100.315 8.08726 97.7183 8.08726C95.1741 8.08726 93.402 9.96465 93.402 12.6842C93.402 15.3687 95.2092 17.2461 97.7884 17.2461ZM97.7358 9.84183C99.0166 9.84183 99.8413 10.6314 99.8413 11.8245H95.49C95.7005 10.5261 96.4725 9.84183 97.7358 9.84183Z" fill="white"/>
</svg>
